<svg version="1.1" id="Layer_1" xmlns="http://www.w3.org/2000/svg" xmlns:xlink="http://www.w3.org/1999/xlink" x="0px" y="0px"
	 width="100%" viewBox="0 0 3192 662" enable-background="new 0 0 3192 662" xml:space="preserve">
<path fill="#FFFFFF" opacity="1.000000" stroke="none" 
	d="
M3193.000000,502.000031 
	C3193.000000,555.660217 3193.000000,609.320496 3193.000000,663.000000 
	C2130.300537,663.000000 1067.601196,663.000000 4.610175,662.625854 
	C14.323958,660.176636 24.303267,657.964233 34.340347,656.055664 
	C53.993752,652.318604 73.009666,646.449402 91.034454,637.877441 
	C109.892639,628.909058 126.131348,616.090088 139.869080,600.412231 
	C146.496368,592.848938 152.689072,584.704224 157.823456,576.075867 
	C167.886047,559.165771 169.919571,539.896240 171.931442,520.804871 
	C172.983002,510.826569 173.091248,500.751099 174.051514,490.760437 
	C175.506226,475.625458 176.746078,460.431396 179.170441,445.439209 
	C181.461670,431.270355 187.652618,418.467834 197.631424,407.962616 
	C211.440994,393.424591 229.446640,387.671753 248.653809,385.060669 
	C260.806427,383.408630 273.103729,382.764893 285.218384,380.902710 
	C303.734680,378.056580 321.514618,372.819702 337.808746,363.094482 
	C348.364471,356.794220 357.704742,349.134521 364.866608,339.238800 
	C374.958374,325.294769 381.725098,309.700775 384.941620,292.750366 
	C386.943329,282.201752 388.920227,271.586334 389.820892,260.909180 
	C390.641296,251.183411 389.994659,241.333893 389.994659,231.730225 
	C389.981567,231.741043 389.509521,231.964478 389.289032,232.336868 
	C381.452057,245.574127 370.157593,255.072479 356.533600,261.738800 
	C340.883698,269.396423 324.307678,274.046356 307.120087,277.233032 
	C287.173981,280.931183 267.070709,282.541046 246.944031,282.751923 
	C229.180054,282.938049 211.375214,281.250153 193.624008,279.916077 
	C181.727829,279.022003 169.902176,277.221252 158.029800,275.970184 
	C144.670258,274.562408 131.304611,272.417053 117.921402,272.254181 
	C104.667503,272.092896 91.241753,273.101440 78.157715,275.232208 
	C61.992985,277.864746 47.778976,284.906372 38.846985,299.692688 
	C31.640863,311.622009 29.853746,325.018890 29.106022,338.547302 
	C28.798880,344.104370 29.513674,349.740601 30.033558,355.315643 
	C30.930183,364.930817 31.503977,374.619476 33.160648,384.111938 
	C37.515072,409.062103 42.757069,433.860565 46.905891,458.842255 
	C49.606964,475.106476 51.608295,491.542267 52.809391,507.982574 
	C53.755436,520.931824 53.518757,534.032104 52.850250,547.016052 
	C52.220715,559.242920 50.947651,571.509705 48.876793,583.573303 
	C45.075165,605.719421 36.510929,625.590637 19.459408,641.213074 
	C12.828991,647.287781 7.125641,654.374329 1.000000,661.000000 
	C1.000000,441.104187 1.000000,221.208359 1.000000,1.000000 
	C63.699051,1.000000 126.398621,1.000000 189.379730,1.381906 
	C186.083771,2.191942 182.417053,2.255535 178.942810,3.105643 
	C150.094803,10.164428 126.379860,25.530443 108.601791,49.150105 
	C94.120888,68.389198 86.512230,90.660233 85.104492,114.730545 
	C84.258408,129.197357 86.236816,143.487885 90.734543,157.338150 
	C97.230988,177.343292 107.426102,195.128876 123.555817,208.877609 
	C131.325638,215.500504 139.577301,221.816147 148.406021,226.886047 
	C168.040222,238.160980 189.397095,242.306732 212.122299,241.182739 
	C228.712753,240.362183 244.346649,236.560944 259.038818,229.323257 
	C276.112305,220.912476 290.468292,209.073135 302.011627,193.643463 
	C322.771484,165.894348 329.993225,134.668259 324.679535,101.062141 
	C320.119141,72.220215 306.253418,47.836266 283.458252,28.816460 
	C271.689941,18.997240 258.778839,11.464638 244.273239,6.778010 
	C236.987137,4.423938 229.432953,2.899577 222.000000,1.000000 
	C1212.217529,1.000000 2202.435059,1.000000 3193.000000,1.000000 
	C3193.000000,155.699234 3193.000000,310.398712 3192.632568,465.399414 
	C3188.606689,444.771606 3177.969971,428.361847 3160.760498,415.902069 
	C3146.915283,405.877930 3131.553955,399.136505 3115.427734,394.050110 
	C3090.457031,386.174255 3065.302490,378.879578 3040.371826,370.882477 
	C3029.826416,367.499725 3020.486328,361.905884 3012.779053,353.470306 
	C3002.591064,342.320068 3004.436768,323.149689 3013.497559,312.015717 
	C3023.502930,299.720886 3037.378662,294.989990 3052.384766,294.235687 
	C3063.168457,293.693634 3074.200928,294.480865 3084.872803,296.212769 
	C3099.278320,298.550720 3113.103271,303.155640 3125.781250,310.874390 
	C3132.912109,315.216125 3140.081299,319.461639 3149.428467,317.166229 
	C3160.068604,314.553406 3166.953369,308.651947 3170.304443,298.283600 
	C3173.749512,287.625793 3171.151367,278.360168 3163.813721,270.394806 
	C3153.019043,258.676422 3138.899902,252.277420 3124.268555,247.061691 
	C3111.846924,242.633728 3099.054932,239.309189 3085.766846,239.054321 
	C3071.923340,238.788818 3057.877441,237.596832 3044.275391,239.436737 
	C3030.626465,241.282959 3016.974609,245.248688 3004.122070,250.311111 
	C2986.956787,257.072266 2972.130371,267.733459 2961.223877,283.201904 
	C2952.304932,295.850952 2947.433838,309.665192 2945.765625,325.134857 
	C2944.364502,338.124237 2945.099365,350.723755 2948.646973,363.063660 
	C2955.209717,385.889801 2971.297363,400.801819 2991.447021,411.720734 
	C3010.792969,422.204132 3031.938477,427.965118 3052.944336,434.009277 
	C3071.588135,439.373657 3090.576904,443.759430 3107.885254,452.987152 
	C3117.488037,458.106873 3125.853271,464.712494 3129.877930,475.130371 
	C3134.645020,487.469452 3126.234375,507.353546 3114.036865,516.098022 
	C3101.776855,524.887207 3087.731445,527.739685 3073.468506,527.661316 
	C3060.684814,527.591187 3047.693848,525.612244 3035.196777,522.730408 
	C3017.644043,518.682678 3000.784668,512.412231 2986.209717,501.116150 
	C2980.729736,496.869171 2974.038818,493.874420 2967.112305,495.222839 
	C2954.537842,497.670624 2944.607178,504.153168 2941.805908,517.740417 
	C2939.272217,530.030945 2940.718506,541.639099 2950.372070,550.823242 
	C2962.509766,562.370483 2977.245361,569.516296 2992.843262,575.000854 
	C3017.552490,583.689087 3043.003174,587.618652 3069.186523,585.943665 
	C3079.310791,585.295959 3089.520264,584.699341 3099.472656,582.883423 
	C3127.261230,577.813049 3152.325195,567.222839 3171.356934,545.193970 
	C3179.677002,535.563599 3185.611816,524.758545 3189.060547,512.510742 
	C3190.071045,508.921997 3191.670654,505.499054 3193.000000,502.000031 
M1588.514038,462.985596 
	C1590.674072,450.326416 1593.678223,437.740417 1594.783569,424.989807 
	C1596.210449,408.530273 1595.024658,391.910614 1591.724243,375.739899 
	C1586.580933,350.541290 1576.781128,327.350250 1560.595825,306.857849 
	C1546.008301,288.388489 1528.401001,273.951782 1507.780640,262.991028 
	C1489.905151,253.489334 1470.955322,247.379593 1450.967285,243.731537 
	C1435.544922,240.916748 1420.132202,239.772293 1404.878052,242.262802 
	C1389.274048,244.810410 1373.631836,248.311386 1358.679077,253.379898 
	C1336.448608,260.915405 1316.716553,273.260254 1299.765625,289.734375 
	C1285.322510,303.771240 1273.991211,319.887238 1265.798218,338.382202 
	C1256.704468,358.910553 1251.762939,380.349792 1251.181274,402.633789 
	C1250.846680,415.456329 1251.979126,428.356598 1253.083008,441.167450 
	C1254.529663,457.960571 1259.643921,473.853180 1266.618408,489.128784 
	C1276.379272,510.506989 1290.647827,528.377380 1308.760864,543.337952 
	C1323.463867,555.481934 1339.772095,564.708740 1357.705933,570.960571 
	C1380.213623,578.807068 1403.338135,582.879333 1427.290649,581.008850 
	C1436.468506,580.292114 1445.668701,579.830200 1454.832397,578.972351 
	C1470.833008,577.474365 1485.931152,572.430420 1500.376099,565.774292 
	C1521.169312,556.192810 1539.602661,543.301636 1554.852417,525.851013 
	C1565.925659,513.179749 1574.614136,499.166046 1581.400513,483.946777 
	C1584.279419,477.490417 1585.884888,470.466217 1588.514038,462.985596 
M2038.882446,580.943359 
	C2049.397705,580.962280 2059.920410,581.233032 2070.425781,580.916199 
	C2078.118408,580.684143 2085.808838,579.866577 2093.462646,578.983032 
	C2111.689209,576.879150 2129.012207,571.284119 2145.074463,562.749329 
	C2156.193848,556.840881 2166.585449,549.347107 2176.629639,541.680603 
	C2192.200195,529.796021 2203.939209,514.518250 2213.307129,497.329803 
	C2224.600098,476.608704 2231.209961,454.310547 2232.651367,431.018372 
	C2233.717529,413.784485 2232.762695,396.216339 2230.646240,379.051361 
	C2228.357910,360.491180 2221.343506,343.104095 2212.290039,326.588959 
	C2202.954346,309.558472 2190.524658,295.073547 2175.899170,282.639832 
	C2161.241699,270.178864 2144.512939,260.855377 2126.517334,253.846008 
	C2108.048584,246.652481 2088.886475,242.398941 2069.205566,241.145737 
	C2052.935547,240.109711 2036.747070,242.237839 2020.897705,246.049103 
	C1986.128418,254.410065 1955.646606,270.310608 1931.271362,297.116425 
	C1919.974976,309.539124 1910.935425,323.246735 1904.046631,338.529968 
	C1893.972778,360.879578 1889.743408,384.515961 1889.219482,408.735962 
	C1888.958130,420.813782 1890.758667,432.966888 1892.054810,445.039978 
	C1893.676880,460.148102 1898.441162,474.439697 1904.693481,488.207428 
	C1914.158691,509.049896 1927.479370,526.974060 1945.132080,541.734619 
	C1958.343262,552.781311 1972.801025,561.550720 1988.719482,568.030212 
	C2004.588135,574.489258 2021.008423,578.710693 2038.882446,580.943359 
M2590.940674,358.735291 
	C2590.626709,357.986572 2590.243896,357.258728 2590.008545,356.486053 
	C2583.669189,335.669495 2573.346924,316.961853 2559.031250,300.679474 
	C2541.022217,280.196503 2519.133545,265.061859 2493.725586,254.884445 
	C2472.484131,246.375961 2450.564209,241.407700 2427.711670,241.071823 
	C2411.944092,240.840103 2396.329590,243.028244 2381.145752,247.129303 
	C2347.983643,256.086121 2318.703125,271.706970 2295.537842,297.829681 
	C2284.178711,310.639221 2274.988037,324.626740 2268.215332,340.328705 
	C2258.921631,361.875214 2254.918945,384.549500 2254.167236,407.775299 
	C2253.838867,417.926819 2255.268066,428.141907 2256.010986,438.319946 
	C2257.266113,455.514374 2262.211426,471.807526 2269.213623,487.391724 
	C2279.855225,511.076904 2295.492188,530.948059 2316.226074,546.789612 
	C2331.345459,558.341248 2347.999756,567.135437 2365.994873,572.755554 
	C2386.895020,579.282776 2408.384033,581.978088 2430.560791,581.324280 
	C2451.392822,580.710022 2471.520264,577.828430 2491.047119,570.900330 
	C2513.255127,563.021118 2532.999756,550.991760 2549.981201,534.536194 
	C2565.197266,519.791809 2576.897705,502.710724 2585.021240,483.110931 
	C2592.828369,464.274719 2597.295654,444.696594 2597.883301,424.369812 
	C2598.203125,413.298859 2597.988037,402.123566 2596.812988,391.123627 
	C2595.679688,380.516602 2593.001709,370.074585 2590.940674,358.735291 
M869.721130,570.956055 
	C877.477539,575.153198 885.888672,577.814148 894.560852,576.800415 
	C908.861023,575.128723 919.994873,561.522583 919.996155,547.092102 
	C920.003784,458.598419 919.852478,370.104279 920.128601,281.611450 
	C920.181641,264.597839 901.045715,246.755417 883.062988,248.602859 
	C871.975891,249.741898 856.747986,267.073822 856.822083,278.394257 
	C857.205078,336.887573 857.000000,395.384766 857.000000,453.880585 
	C857.000000,455.564606 857.000000,457.248627 857.000000,459.816040 
	C855.458740,458.675507 854.840271,458.389160 854.461365,457.912415 
	C844.610229,445.518372 834.820923,433.075012 824.942932,420.702423 
	C815.047302,408.307648 805.076477,395.972839 795.121826,383.625305 
	C785.165710,371.276154 775.148926,358.975800 765.232422,346.595062 
	C755.024414,333.850372 744.896484,321.041412 734.749939,308.247559 
	C726.129150,297.377441 717.691101,286.357727 708.879272,275.645111 
	C700.029785,264.886627 691.206848,253.933838 675.789001,252.327362 
	C667.659241,251.480255 659.758118,251.868698 652.518188,256.045349 
	C643.275574,261.377258 641.128784,270.583435 641.109009,280.028198 
	C640.924866,368.021545 640.989075,456.015442 641.043274,544.009155 
	C641.045227,547.256287 641.264526,550.615173 642.095581,553.731750 
	C647.262756,573.109680 666.675049,580.434204 682.955017,575.359070 
	C695.588806,571.420654 702.998718,559.835205 702.999146,546.516174 
	C703.001099,488.186981 703.000000,429.857819 703.000000,371.528625 
	C703.000000,369.830414 703.000000,368.132233 703.000000,365.422485 
	C711.526794,376.289093 719.254089,386.157440 727.004028,396.007904 
	C736.291504,407.812500 745.605225,419.596344 754.894775,431.399261 
	C764.281311,443.325409 773.633667,455.278534 783.035400,467.192688 
	C792.344727,478.989838 801.702515,490.748749 811.029114,502.532288 
	C820.353577,514.313171 829.642151,526.122620 838.990051,537.884888 
	C848.226013,549.506409 856.165222,562.328796 869.721130,570.956055 
M2808.988770,256.490479 
	C2796.073486,253.674576 2783.010986,252.864853 2769.801270,252.935577 
	C2734.482422,253.124695 2699.161377,252.933716 2663.842285,253.088516 
	C2659.685547,253.106750 2655.380859,253.853043 2651.409180,255.102264 
	C2640.068115,258.669434 2631.021240,269.799927 2631.017822,279.867554 
	C2630.987061,369.999817 2630.935791,460.132202 2631.115723,550.264099 
	C2631.131104,557.898254 2634.524414,564.418335 2640.816895,569.526367 
	C2647.731445,575.139038 2655.761719,576.827759 2664.052246,576.891479 
	C2697.870605,577.151855 2731.692627,576.941895 2765.512695,577.026367 
	C2780.672852,577.064209 2795.678223,575.966187 2810.599609,573.069885 
	C2835.953613,568.148743 2858.206787,556.982849 2877.399658,539.952148 
	C2893.883789,525.325317 2906.082031,507.451019 2914.990234,487.274536 
	C2924.662109,465.368469 2929.168213,442.303131 2929.863037,418.565521 
	C2930.386475,400.690674 2927.862305,383.080658 2923.138916,365.707672 
	C2916.625732,341.754120 2905.645020,320.277039 2889.173096,301.797485 
	C2874.496826,285.332214 2856.922607,272.604492 2836.196777,264.776672 
	C2827.614258,261.535187 2818.572021,259.510223 2808.988770,256.490479 
M1042.000000,348.500000 
	C1042.000000,325.001801 1042.090454,301.503082 1041.959717,278.005585 
	C1041.899658,267.199829 1036.404297,259.235443 1027.240234,254.182968 
	C1020.131348,250.263626 1012.175415,249.136917 1004.122559,251.034500 
	C990.898315,254.150650 980.245972,262.452179 980.188049,276.858978 
	C979.818665,368.682159 979.947205,460.507690 980.102356,552.332092 
	C980.114502,559.523804 983.828369,565.374512 989.411133,570.191101 
	C996.416321,576.234741 1004.552673,576.810974 1013.257690,577.154724 
	C1027.802002,577.729065 1042.703003,564.338196 1042.165527,548.375366 
	C1041.481689,528.066956 1041.871460,507.716309 1042.150269,487.388702 
	C1042.188354,484.608582 1043.679565,481.376343 1045.499634,479.185211 
	C1050.142334,473.595764 1055.427979,468.545990 1060.310791,463.148621 
	C1064.606323,458.400513 1068.629150,453.406372 1072.911133,448.645599 
	C1077.169922,443.910370 1081.601318,439.330505 1086.131104,434.496887 
	C1091.200317,441.016296 1095.877930,447.075806 1100.602173,453.098816 
	C1110.068604,465.167969 1119.538330,477.234680 1129.048340,489.269562 
	C1138.367310,501.062836 1147.753052,512.803345 1157.081543,524.589050 
	C1166.404053,536.367126 1175.652344,548.204285 1185.015137,559.950134 
	C1188.557739,564.394348 1191.897339,569.140564 1196.098267,572.887085 
	C1202.407837,578.514099 1210.371582,578.929321 1218.448608,578.010010 
	C1230.743896,576.610657 1240.655884,571.200073 1245.921997,559.750671 
	C1250.764526,549.221924 1248.762817,538.643738 1241.961304,529.697998 
	C1232.751831,517.585205 1222.610596,506.183258 1212.946167,494.413086 
	C1199.554932,478.104126 1186.295898,461.686432 1172.868042,445.407745 
	C1159.359619,429.031464 1145.713989,412.768433 1132.303833,396.666382 
	C1137.164551,391.299286 1141.677734,386.005890 1146.516479,381.029053 
	C1163.090576,363.982513 1179.860962,347.126343 1196.391113,330.037567 
	C1205.354492,320.771088 1214.059692,311.250397 1222.737183,301.713165 
	C1229.229980,294.577118 1232.986084,286.001617 1230.796265,276.486938 
	C1227.849976,263.684906 1219.322388,255.018723 1206.773804,251.122787 
	C1195.651123,247.669556 1185.726562,251.029053 1177.611450,259.006927 
	C1168.621338,267.844879 1160.067993,277.126434 1151.302246,286.193298 
	C1140.915039,296.937317 1130.522705,307.676575 1120.098755,318.384857 
	C1106.420166,332.436340 1092.684692,346.432312 1079.020386,360.497559 
	C1071.045410,368.706543 1063.190796,377.032379 1055.224365,385.249786 
	C1051.252441,389.347015 1047.150879,393.318665 1043.107910,397.347076 
	C1042.738647,397.145355 1042.369263,396.943665 1042.000000,396.741974 
	C1042.000000,380.994659 1042.000000,365.247314 1042.000000,348.500000 
M1701.000000,330.501678 
	C1701.000000,325.074249 1701.000000,319.646851 1701.000000,314.000000 
	C1703.457153,314.000000 1705.272705,314.000000 1707.088135,314.000000 
	C1751.074097,314.000000 1795.061279,314.198639 1839.045288,313.910950 
	C1859.143066,313.779510 1873.177124,294.002228 1868.309326,273.911194 
	C1865.053345,260.473053 1853.343384,253.142700 1840.265747,253.092880 
	C1783.451416,252.876434 1726.635742,252.983017 1669.820557,253.044205 
	C1666.574219,253.047699 1663.208618,253.255661 1660.103882,254.112274 
	C1648.497437,257.314484 1638.818359,267.473511 1638.859863,281.147919 
	C1639.132202,370.785095 1639.005493,460.423462 1638.988403,550.061462 
	C1638.987183,556.271301 1641.529419,561.373474 1645.446777,565.966858 
	C1651.058960,572.547485 1658.472656,574.985657 1666.767944,576.597229 
	C1674.897705,578.176514 1690.813110,573.254089 1695.378052,565.522827 
	C1698.927734,559.510986 1700.929199,553.410645 1700.953125,546.667603 
	C1701.060547,516.344421 1701.000000,486.020538 1701.000000,455.696899 
	C1701.000000,453.918518 1701.000000,452.140137 1701.000000,450.000000 
	C1703.303345,450.000000 1705.099976,450.000000 1706.896484,450.000000 
	C1743.051636,450.000000 1779.207764,450.138214 1815.360840,449.864990 
	C1821.443237,449.819031 1827.695923,448.609985 1833.548828,446.862640 
	C1845.371948,443.332977 1852.879761,432.469421 1853.034302,420.442596 
	C1853.185303,408.695099 1846.586548,400.766632 1838.128174,394.107758 
	C1832.369019,389.573853 1825.663574,387.803650 1818.041748,387.864899 
	C1780.889404,388.163513 1743.733276,388.000000 1706.578491,388.000000 
	C1704.811401,388.000000 1703.044434,388.000000 1701.000000,388.000000 
	C1701.000000,368.771149 1701.000000,350.136230 1701.000000,330.501678 
M584.000000,379.500000 
	C584.000000,345.848145 584.041077,312.196167 583.969604,278.544464 
	C583.952881,270.680725 580.728027,264.038422 574.764526,259.004944 
	C563.806274,249.755630 551.203613,249.466263 538.660034,254.347351 
	C529.496765,257.913055 522.029114,266.669373 522.024170,277.432068 
	C521.981995,368.892181 521.958069,460.352325 522.073059,551.812256 
	C522.083130,559.849915 525.554626,566.449951 532.471619,571.172424 
	C540.507385,576.658691 548.924866,578.659790 558.730103,577.153015 
	C572.171082,575.087463 584.033264,564.238220 584.020142,549.426331 
	C583.970215,493.117584 584.000000,436.808777 584.000000,379.500000 
M285.986755,495.514679 
	C328.401093,475.465271 342.210754,434.068237 339.284180,406.148254 
	C327.434662,412.007141 315.518402,418.585297 303.062744,423.899017 
	C283.710083,432.155060 263.022919,432.687469 242.320786,433.224854 
	C236.068970,433.387146 229.317307,435.158264 223.801361,438.087921 
	C214.728607,442.906738 211.306473,452.426361 209.143463,461.829773 
	C206.850998,471.795898 205.209961,481.970245 204.157516,492.143951 
	C203.380569,499.654327 204.004883,507.309662 204.004883,515.233459 
	C232.591782,512.808533 259.876709,508.228973 285.986755,495.514679 
z"/>
<path fill="#283891" opacity="1.000000" stroke="none" 
	d="
M0.999999,661.500000 
	C7.125641,654.374329 12.828991,647.287781 19.459408,641.213074 
	C36.510929,625.590637 45.075165,605.719421 48.876793,583.573303 
	C50.947651,571.509705 52.220715,559.242920 52.850250,547.016052 
	C53.518757,534.032104 53.755436,520.931824 52.809391,507.982574 
	C51.608295,491.542267 49.606964,475.106476 46.905891,458.842255 
	C42.757069,433.860565 37.515072,409.062103 33.160648,384.111938 
	C31.503977,374.619476 30.930183,364.930817 30.033558,355.315643 
	C29.513674,349.740601 28.798880,344.104370 29.106022,338.547302 
	C29.853746,325.018890 31.640863,311.622009 38.846985,299.692688 
	C47.778976,284.906372 61.992985,277.864746 78.157715,275.232208 
	C91.241753,273.101440 104.667503,272.092896 117.921402,272.254181 
	C131.304611,272.417053 144.670258,274.562408 158.029800,275.970184 
	C169.902176,277.221252 181.727829,279.022003 193.624008,279.916077 
	C211.375214,281.250153 229.180054,282.938049 246.944031,282.751923 
	C267.070709,282.541046 287.173981,280.931183 307.120087,277.233032 
	C324.307678,274.046356 340.883698,269.396423 356.533600,261.738800 
	C370.157593,255.072479 381.452057,245.574127 389.289032,232.336868 
	C389.509521,231.964478 389.981567,231.741043 389.994659,231.730225 
	C389.994659,241.333893 390.641296,251.183411 389.820892,260.909180 
	C388.920227,271.586334 386.943329,282.201752 384.941620,292.750366 
	C381.725098,309.700775 374.958374,325.294769 364.866608,339.238800 
	C357.704742,349.134521 348.364471,356.794220 337.808746,363.094482 
	C321.514618,372.819702 303.734680,378.056580 285.218384,380.902710 
	C273.103729,382.764893 260.806427,383.408630 248.653809,385.060669 
	C229.446640,387.671753 211.440994,393.424591 197.631424,407.962616 
	C187.652618,418.467834 181.461670,431.270355 179.170441,445.439209 
	C176.746078,460.431396 175.506226,475.625458 174.051514,490.760437 
	C173.091248,500.751099 172.983002,510.826569 171.931442,520.804871 
	C169.919571,539.896240 167.886047,559.165771 157.823456,576.075867 
	C152.689072,584.704224 146.496368,592.848938 139.869080,600.412231 
	C126.131348,616.090088 109.892639,628.909058 91.034454,637.877441 
	C73.009666,646.449402 53.993752,652.318604 34.340347,656.055664 
	C24.303267,657.964233 14.323958,660.176636 4.159269,662.625854 
	C2.999998,662.666687 1.999998,662.333313 0.999999,661.500000 
z"/>
<path fill="#ED1C24" opacity="1.000000" stroke="none" 
	d="
M221.531342,1.000000 
	C229.432953,2.899577 236.987137,4.423938 244.273239,6.778010 
	C258.778839,11.464638 271.689941,18.997240 283.458252,28.816460 
	C306.253418,47.836266 320.119141,72.220215 324.679535,101.062141 
	C329.993225,134.668259 322.771484,165.894348 302.011627,193.643463 
	C290.468292,209.073135 276.112305,220.912476 259.038818,229.323257 
	C244.346649,236.560944 228.712753,240.362183 212.122299,241.182739 
	C189.397095,242.306732 168.040222,238.160980 148.406021,226.886047 
	C139.577301,221.816147 131.325638,215.500504 123.555817,208.877609 
	C107.426102,195.128876 97.230988,177.343292 90.734543,157.338150 
	C86.236816,143.487885 84.258408,129.197357 85.104492,114.730545 
	C86.512230,90.660233 94.120888,68.389198 108.601791,49.150105 
	C126.379860,25.530443 150.094803,10.164428 178.942810,3.105643 
	C182.417053,2.255535 186.083771,2.191942 189.830627,1.381906 
	C200.354233,1.000000 210.708450,1.000000 221.531342,1.000000 
z"/>
<path fill="#283891" opacity="1.000000" stroke="none" 
	d="
M3193.000000,501.531372 
	C3191.670654,505.499054 3190.071045,508.921997 3189.060547,512.510742 
	C3185.611816,524.758545 3179.677002,535.563599 3171.356934,545.193970 
	C3152.325195,567.222839 3127.261230,577.813049 3099.472656,582.883423 
	C3089.520264,584.699341 3079.310791,585.295959 3069.186523,585.943665 
	C3043.003174,587.618652 3017.552490,583.689087 2992.843262,575.000854 
	C2977.245361,569.516296 2962.509766,562.370483 2950.372070,550.823242 
	C2940.718506,541.639099 2939.272217,530.030945 2941.805908,517.740417 
	C2944.607178,504.153168 2954.537842,497.670624 2967.112305,495.222839 
	C2974.038818,493.874420 2980.729736,496.869171 2986.209717,501.116150 
	C3000.784668,512.412231 3017.644043,518.682678 3035.196777,522.730408 
	C3047.693848,525.612244 3060.684814,527.591187 3073.468506,527.661316 
	C3087.731445,527.739685 3101.776855,524.887207 3114.036865,516.098022 
	C3126.234375,507.353546 3134.645020,487.469452 3129.877930,475.130371 
	C3125.853271,464.712494 3117.488037,458.106873 3107.885254,452.987152 
	C3090.576904,443.759430 3071.588135,439.373657 3052.944336,434.009277 
	C3031.938477,427.965118 3010.792969,422.204132 2991.447021,411.720734 
	C2971.297363,400.801819 2955.209717,385.889801 2948.646973,363.063660 
	C2945.099365,350.723755 2944.364502,338.124237 2945.765625,325.134857 
	C2947.433838,309.665192 2952.304932,295.850952 2961.223877,283.201904 
	C2972.130371,267.733459 2986.956787,257.072266 3004.122070,250.311111 
	C3016.974609,245.248688 3030.626465,241.282959 3044.275391,239.436737 
	C3057.877441,237.596832 3071.923340,238.788818 3085.766846,239.054321 
	C3099.054932,239.309189 3111.846924,242.633728 3124.268555,247.061691 
	C3138.899902,252.277420 3153.019043,258.676422 3163.813721,270.394806 
	C3171.151367,278.360168 3173.749512,287.625793 3170.304443,298.283600 
	C3166.953369,308.651947 3160.068604,314.553406 3149.428467,317.166229 
	C3140.081299,319.461639 3132.912109,315.216125 3125.781250,310.874390 
	C3113.103271,303.155640 3099.278320,298.550720 3084.872803,296.212769 
	C3074.200928,294.480865 3063.168457,293.693634 3052.384766,294.235687 
	C3037.378662,294.989990 3023.502930,299.720886 3013.497559,312.015717 
	C3004.436768,323.149689 3002.591064,342.320068 3012.779053,353.470306 
	C3020.486328,361.905884 3029.826416,367.499725 3040.371826,370.882477 
	C3065.302490,378.879578 3090.457031,386.174255 3115.427734,394.050110 
	C3131.553955,399.136505 3146.915283,405.877930 3160.760498,415.902069 
	C3177.969971,428.361847 3188.606689,444.771606 3192.632568,465.850281 
	C3193.000000,477.687561 3193.000000,489.375122 3193.000000,501.531372 
z"/>
<path fill="#283891" opacity="1.000000" stroke="none" 
	d="
M1588.291504,463.342834 
	C1585.884888,470.466217 1584.279419,477.490417 1581.400513,483.946777 
	C1574.614136,499.166046 1565.925659,513.179749 1554.852417,525.851013 
	C1539.602661,543.301636 1521.169312,556.192810 1500.376099,565.774292 
	C1485.931152,572.430420 1470.833008,577.474365 1454.832397,578.972351 
	C1445.668701,579.830200 1436.468506,580.292114 1427.290649,581.008850 
	C1403.338135,582.879333 1380.213623,578.807068 1357.705933,570.960571 
	C1339.772095,564.708740 1323.463867,555.481934 1308.760864,543.337952 
	C1290.647827,528.377380 1276.379272,510.506989 1266.618408,489.128784 
	C1259.643921,473.853180 1254.529663,457.960571 1253.083008,441.167450 
	C1251.979126,428.356598 1250.846680,415.456329 1251.181274,402.633789 
	C1251.762939,380.349792 1256.704468,358.910553 1265.798218,338.382202 
	C1273.991211,319.887238 1285.322510,303.771240 1299.765625,289.734375 
	C1316.716553,273.260254 1336.448608,260.915405 1358.679077,253.379898 
	C1373.631836,248.311386 1389.274048,244.810410 1404.878052,242.262802 
	C1420.132202,239.772293 1435.544922,240.916748 1450.967285,243.731537 
	C1470.955322,247.379593 1489.905151,253.489334 1507.780640,262.991028 
	C1528.401001,273.951782 1546.008301,288.388489 1560.595825,306.857849 
	C1576.781128,327.350250 1586.580933,350.541290 1591.724243,375.739899 
	C1595.024658,391.910614 1596.210449,408.530273 1594.783569,424.989807 
	C1593.678223,437.740417 1590.674072,450.326416 1588.291504,463.342834 
M1394.775513,306.058868 
	C1394.485474,306.222321 1394.214355,306.457001 1393.902832,306.539001 
	C1371.551270,312.425629 1352.699585,323.714478 1337.741455,341.628723 
	C1323.587280,358.580353 1316.170532,378.229736 1314.214478,399.801788 
	C1313.102417,412.066162 1313.460449,424.463776 1315.842773,436.831146 
	C1320.622803,461.645752 1332.502319,482.414948 1351.886597,498.006226 
	C1375.633667,517.106567 1403.131348,525.496765 1433.983154,522.132080 
	C1449.260620,520.465942 1463.464844,516.156860 1476.974121,509.026428 
	C1496.214355,498.870972 1511.286743,484.372162 1520.880371,464.910431 
	C1531.982300,442.389008 1535.195923,418.582489 1531.164917,393.551025 
	C1526.942383,367.330841 1515.516846,345.583862 1495.071655,328.526306 
	C1476.717163,313.212982 1455.288086,305.411407 1431.879761,303.174286 
	C1419.786743,302.018585 1407.516235,302.605469 1394.775513,306.058868 
z"/>
<path fill="#283891" opacity="1.000000" stroke="none" 
	d="
M2038.462646,580.743225 
	C2021.008423,578.710693 2004.588135,574.489258 1988.719482,568.030212 
	C1972.801025,561.550720 1958.343262,552.781311 1945.132080,541.734619 
	C1927.479370,526.974060 1914.158691,509.049896 1904.693481,488.207428 
	C1898.441162,474.439697 1893.676880,460.148102 1892.054810,445.039978 
	C1890.758667,432.966888 1888.958130,420.813782 1889.219482,408.735962 
	C1889.743408,384.515961 1893.972778,360.879578 1904.046631,338.529968 
	C1910.935425,323.246735 1919.974976,309.539124 1931.271362,297.116425 
	C1955.646606,270.310608 1986.128418,254.410065 2020.897705,246.049103 
	C2036.747070,242.237839 2052.935547,240.109711 2069.205566,241.145737 
	C2088.886475,242.398941 2108.048584,246.652481 2126.517334,253.846008 
	C2144.512939,260.855377 2161.241699,270.178864 2175.899170,282.639832 
	C2190.524658,295.073547 2202.954346,309.558472 2212.290039,326.588959 
	C2221.343506,343.104095 2228.357910,360.491180 2230.646240,379.051361 
	C2232.762695,396.216339 2233.717529,413.784485 2232.651367,431.018372 
	C2231.209961,454.310547 2224.600098,476.608704 2213.307129,497.329803 
	C2203.939209,514.518250 2192.200195,529.796021 2176.629639,541.680603 
	C2166.585449,549.347107 2156.193848,556.840881 2145.074463,562.749329 
	C2129.012207,571.284119 2111.689209,576.879150 2093.462646,578.983032 
	C2085.808838,579.866577 2078.118408,580.684143 2070.425781,580.916199 
	C2059.920410,581.233032 2049.397705,580.962280 2038.462646,580.743225 
M1955.997314,444.445312 
	C1956.608887,446.452332 1957.154785,448.482208 1957.842407,450.462799 
	C1964.982422,471.026520 1976.628296,488.229370 1994.518555,501.122314 
	C2013.133545,514.537598 2033.862549,521.733582 2056.601562,522.906677 
	C2072.426270,523.723022 2087.752686,520.650940 2102.588135,515.017456 
	C2121.354736,507.890991 2137.256348,496.695343 2149.481689,480.849457 
	C2162.160889,464.415192 2169.101318,445.335449 2170.816650,424.782410 
	C2172.227051,407.881714 2170.873291,390.991486 2165.305664,374.700867 
	C2158.619629,355.136810 2147.071777,339.078583 2130.831787,326.315918 
	C2113.338379,312.567963 2093.218994,305.117798 2071.351318,303.168549 
	C2047.870239,301.075439 2025.461792,305.724426 2004.832275,317.626129 
	C1987.548706,327.597534 1973.955078,341.251740 1964.638428,358.906647 
	C1957.906128,371.664276 1954.241943,385.291199 1952.771973,399.768005 
	C1951.257324,414.684082 1952.122192,429.186890 1955.997314,444.445312 
z"/>
<path fill="#283891" opacity="1.000000" stroke="none" 
	d="
M2590.971436,359.147705 
	C2593.001709,370.074585 2595.679688,380.516602 2596.812988,391.123627 
	C2597.988037,402.123566 2598.203125,413.298859 2597.883301,424.369812 
	C2597.295654,444.696594 2592.828369,464.274719 2585.021240,483.110931 
	C2576.897705,502.710724 2565.197266,519.791809 2549.981201,534.536194 
	C2532.999756,550.991760 2513.255127,563.021118 2491.047119,570.900330 
	C2471.520264,577.828430 2451.392822,580.710022 2430.560791,581.324280 
	C2408.384033,581.978088 2386.895020,579.282776 2365.994873,572.755554 
	C2347.999756,567.135437 2331.345459,558.341248 2316.226074,546.789612 
	C2295.492188,530.948059 2279.855225,511.076904 2269.213623,487.391724 
	C2262.211426,471.807526 2257.266113,455.514374 2256.010986,438.319946 
	C2255.268066,428.141907 2253.838867,417.926819 2254.167236,407.775299 
	C2254.918945,384.549500 2258.921631,361.875214 2268.215332,340.328705 
	C2274.988037,324.626740 2284.178711,310.639221 2295.537842,297.829681 
	C2318.703125,271.706970 2347.983643,256.086121 2381.145752,247.129303 
	C2396.329590,243.028244 2411.944092,240.840103 2427.711670,241.071823 
	C2450.564209,241.407700 2472.484131,246.375961 2493.725586,254.884445 
	C2519.133545,265.061859 2541.022217,280.196503 2559.031250,300.679474 
	C2573.346924,316.961853 2583.669189,335.669495 2590.008545,356.486053 
	C2590.243896,357.258728 2590.626709,357.986572 2590.971436,359.147705 
M2317.925781,425.749847 
	C2318.848633,441.775330 2323.799072,456.495850 2331.729980,470.414062 
	C2342.201172,488.790344 2357.302734,502.255432 2376.022461,511.337830 
	C2398.133545,522.065674 2421.500977,525.634033 2446.000244,521.077942 
	C2468.696533,516.857178 2488.545410,507.111053 2505.119629,491.211823 
	C2516.676270,480.126007 2524.790283,466.529327 2529.967773,451.353119 
	C2535.877686,434.029907 2537.200684,416.285461 2535.152344,398.056641 
	C2533.772705,385.778107 2530.690430,374.093201 2525.456299,363.078125 
	C2514.114746,339.209717 2495.762207,322.499451 2471.527588,312.177277 
	C2450.040771,303.025482 2427.843018,300.515137 2404.842773,304.936768 
	C2373.726318,310.918701 2349.397217,326.876648 2332.608887,353.882263 
	C2319.035889,375.715759 2315.419678,399.750793 2317.925781,425.749847 
z"/>
<path fill="#283891" opacity="1.000000" stroke="none" 
	d="
M869.398315,570.763428 
	C856.165222,562.328796 848.226013,549.506409 838.990051,537.884888 
	C829.642151,526.122620 820.353577,514.313171 811.029114,502.532288 
	C801.702515,490.748749 792.344727,478.989838 783.035400,467.192688 
	C773.633667,455.278534 764.281311,443.325409 754.894775,431.399261 
	C745.605225,419.596344 736.291504,407.812500 727.004028,396.007904 
	C719.254089,386.157440 711.526794,376.289093 703.000000,365.422485 
	C703.000000,368.132233 703.000000,369.830414 703.000000,371.528625 
	C703.000000,429.857819 703.001099,488.186981 702.999146,546.516174 
	C702.998718,559.835205 695.588806,571.420654 682.955017,575.359070 
	C666.675049,580.434204 647.262756,573.109680 642.095581,553.731750 
	C641.264526,550.615173 641.045227,547.256287 641.043274,544.009155 
	C640.989075,456.015442 640.924866,368.021545 641.109009,280.028198 
	C641.128784,270.583435 643.275574,261.377258 652.518188,256.045349 
	C659.758118,251.868698 667.659241,251.480255 675.789001,252.327362 
	C691.206848,253.933838 700.029785,264.886627 708.879272,275.645111 
	C717.691101,286.357727 726.129150,297.377441 734.749939,308.247559 
	C744.896484,321.041412 755.024414,333.850372 765.232422,346.595062 
	C775.148926,358.975800 785.165710,371.276154 795.121826,383.625305 
	C805.076477,395.972839 815.047302,408.307648 824.942932,420.702423 
	C834.820923,433.075012 844.610229,445.518372 854.461365,457.912415 
	C854.840271,458.389160 855.458740,458.675507 857.000000,459.816040 
	C857.000000,457.248627 857.000000,455.564606 857.000000,453.880585 
	C857.000000,395.384766 857.205078,336.887573 856.822083,278.394257 
	C856.747986,267.073822 871.975891,249.741898 883.062988,248.602859 
	C901.045715,246.755417 920.181641,264.597839 920.128601,281.611450 
	C919.852478,370.104279 920.003784,458.598419 919.996155,547.092102 
	C919.994873,561.522583 908.861023,575.128723 894.560852,576.800415 
	C885.888672,577.814148 877.477539,575.153198 869.398315,570.763428 
z"/>
<path fill="#283891" opacity="1.000000" stroke="none" 
	d="
M2809.363770,256.711243 
	C2818.572021,259.510223 2827.614258,261.535187 2836.196777,264.776672 
	C2856.922607,272.604492 2874.496826,285.332214 2889.173096,301.797485 
	C2905.645020,320.277039 2916.625732,341.754120 2923.138916,365.707672 
	C2927.862305,383.080658 2930.386475,400.690674 2929.863037,418.565521 
	C2929.168213,442.303131 2924.662109,465.368469 2914.990234,487.274536 
	C2906.082031,507.451019 2893.883789,525.325317 2877.399658,539.952148 
	C2858.206787,556.982849 2835.953613,568.148743 2810.599609,573.069885 
	C2795.678223,575.966187 2780.672852,577.064209 2765.512695,577.026367 
	C2731.692627,576.941895 2697.870605,577.151855 2664.052246,576.891479 
	C2655.761719,576.827759 2647.731445,575.139038 2640.816895,569.526367 
	C2634.524414,564.418335 2631.131104,557.898254 2631.115723,550.264099 
	C2630.935791,460.132202 2630.987061,369.999817 2631.017822,279.867554 
	C2631.021240,269.799927 2640.068115,258.669434 2651.409180,255.102264 
	C2655.380859,253.853043 2659.685547,253.106750 2663.842285,253.088516 
	C2699.161377,252.933716 2734.482422,253.124695 2769.801270,252.935577 
	C2783.010986,252.864853 2796.073486,253.674576 2809.363770,256.711243 
M2693.000000,339.500000 
	C2693.000000,399.242249 2693.000000,458.984467 2693.000000,519.000000 
	C2713.573975,519.000000 2733.546387,519.227966 2753.509766,518.912292 
	C2765.029297,518.730103 2776.605225,518.254028 2788.029785,516.870728 
	C2805.851807,514.712952 2821.099365,506.469269 2834.080566,494.306396 
	C2845.190674,483.896942 2853.018311,471.117920 2858.511475,456.962311 
	C2864.048584,442.693787 2866.483398,427.709412 2866.796875,412.539551 
	C2866.956787,404.795288 2865.193115,396.977600 2863.969238,389.245239 
	C2861.107178,371.161957 2853.536621,354.976379 2841.602783,341.345551 
	C2824.151611,321.412659 2801.578125,311.381866 2775.057617,311.065674 
	C2749.570312,310.761810 2724.076416,311.000000 2698.585449,311.000000 
	C2696.817871,311.000000 2695.050049,311.000000 2693.000000,311.000000 
	C2693.000000,320.558807 2693.000000,329.529419 2693.000000,339.500000 
z"/>
<path fill="#283891" opacity="1.000000" stroke="none" 
	d="
M1042.000000,349.000000 
	C1042.000000,365.247314 1042.000000,380.994659 1042.000000,396.741974 
	C1042.369263,396.943665 1042.738647,397.145355 1043.107910,397.347076 
	C1047.150879,393.318665 1051.252441,389.347015 1055.224365,385.249786 
	C1063.190796,377.032379 1071.045410,368.706543 1079.020386,360.497559 
	C1092.684692,346.432312 1106.420166,332.436340 1120.098755,318.384857 
	C1130.522705,307.676575 1140.915039,296.937317 1151.302246,286.193298 
	C1160.067993,277.126434 1168.621338,267.844879 1177.611450,259.006927 
	C1185.726562,251.029053 1195.651123,247.669556 1206.773804,251.122787 
	C1219.322388,255.018723 1227.849976,263.684906 1230.796265,276.486938 
	C1232.986084,286.001617 1229.229980,294.577118 1222.737183,301.713165 
	C1214.059692,311.250397 1205.354492,320.771088 1196.391113,330.037567 
	C1179.860962,347.126343 1163.090576,363.982513 1146.516479,381.029053 
	C1141.677734,386.005890 1137.164551,391.299286 1132.303833,396.666382 
	C1145.713989,412.768433 1159.359619,429.031464 1172.868042,445.407745 
	C1186.295898,461.686432 1199.554932,478.104126 1212.946167,494.413086 
	C1222.610596,506.183258 1232.751831,517.585205 1241.961304,529.697998 
	C1248.762817,538.643738 1250.764526,549.221924 1245.921997,559.750671 
	C1240.655884,571.200073 1230.743896,576.610657 1218.448608,578.010010 
	C1210.371582,578.929321 1202.407837,578.514099 1196.098267,572.887085 
	C1191.897339,569.140564 1188.557739,564.394348 1185.015137,559.950134 
	C1175.652344,548.204285 1166.404053,536.367126 1157.081543,524.589050 
	C1147.753052,512.803345 1138.367310,501.062836 1129.048340,489.269562 
	C1119.538330,477.234680 1110.068604,465.167969 1100.602173,453.098816 
	C1095.877930,447.075806 1091.200317,441.016296 1086.131104,434.496887 
	C1081.601318,439.330505 1077.169922,443.910370 1072.911133,448.645599 
	C1068.629150,453.406372 1064.606323,458.400513 1060.310791,463.148621 
	C1055.427979,468.545990 1050.142334,473.595764 1045.499634,479.185211 
	C1043.679565,481.376343 1042.188354,484.608582 1042.150269,487.388702 
	C1041.871460,507.716309 1041.481689,528.066956 1042.165527,548.375366 
	C1042.703003,564.338196 1027.802002,577.729065 1013.257690,577.154724 
	C1004.552673,576.810974 996.416321,576.234741 989.411133,570.191101 
	C983.828369,565.374512 980.114502,559.523804 980.102356,552.332092 
	C979.947205,460.507690 979.818665,368.682159 980.188049,276.858978 
	C980.245972,262.452179 990.898315,254.150650 1004.122559,251.034500 
	C1012.175415,249.136917 1020.131348,250.263626 1027.240234,254.182968 
	C1036.404297,259.235443 1041.899658,267.199829 1041.959717,278.005585 
	C1042.090454,301.503082 1042.000000,325.001801 1042.000000,349.000000 
z"/>
<path fill="#283891" opacity="1.000000" stroke="none" 
	d="
M1701.000000,331.001465 
	C1701.000000,350.136230 1701.000000,368.771149 1701.000000,388.000000 
	C1703.044434,388.000000 1704.811401,388.000000 1706.578491,388.000000 
	C1743.733276,388.000000 1780.889404,388.163513 1818.041748,387.864899 
	C1825.663574,387.803650 1832.369019,389.573853 1838.128174,394.107758 
	C1846.586548,400.766632 1853.185303,408.695099 1853.034302,420.442596 
	C1852.879761,432.469421 1845.371948,443.332977 1833.548828,446.862640 
	C1827.695923,448.609985 1821.443237,449.819031 1815.360840,449.864990 
	C1779.207764,450.138214 1743.051636,450.000000 1706.896484,450.000000 
	C1705.099976,450.000000 1703.303345,450.000000 1701.000000,450.000000 
	C1701.000000,452.140137 1701.000000,453.918518 1701.000000,455.696899 
	C1701.000000,486.020538 1701.060547,516.344421 1700.953125,546.667603 
	C1700.929199,553.410645 1698.927734,559.510986 1695.378052,565.522827 
	C1690.813110,573.254089 1674.897705,578.176514 1666.767944,576.597229 
	C1658.472656,574.985657 1651.058960,572.547485 1645.446777,565.966858 
	C1641.529419,561.373474 1638.987183,556.271301 1638.988403,550.061462 
	C1639.005493,460.423462 1639.132202,370.785095 1638.859863,281.147919 
	C1638.818359,267.473511 1648.497437,257.314484 1660.103882,254.112274 
	C1663.208618,253.255661 1666.574219,253.047699 1669.820557,253.044205 
	C1726.635742,252.983017 1783.451416,252.876434 1840.265747,253.092880 
	C1853.343384,253.142700 1865.053345,260.473053 1868.309326,273.911194 
	C1873.177124,294.002228 1859.143066,313.779510 1839.045288,313.910950 
	C1795.061279,314.198639 1751.074097,314.000000 1707.088135,314.000000 
	C1705.272705,314.000000 1703.457153,314.000000 1701.000000,314.000000 
	C1701.000000,319.646851 1701.000000,325.074249 1701.000000,331.001465 
z"/>
<path fill="#283891" opacity="1.000000" stroke="none" 
	d="
M584.000000,380.000000 
	C584.000000,436.808777 583.970215,493.117584 584.020142,549.426331 
	C584.033264,564.238220 572.171082,575.087463 558.730103,577.153015 
	C548.924866,578.659790 540.507385,576.658691 532.471619,571.172424 
	C525.554626,566.449951 522.083130,559.849915 522.073059,551.812256 
	C521.958069,460.352325 521.981995,368.892181 522.024170,277.432068 
	C522.029114,266.669373 529.496765,257.913055 538.660034,254.347351 
	C551.203613,249.466263 563.806274,249.755630 574.764526,259.004944 
	C580.728027,264.038422 583.952881,270.680725 583.969604,278.544464 
	C584.041077,312.196167 584.000000,345.848145 584.000000,380.000000 
z"/>
<path fill="#283891" opacity="1.000000" stroke="none" 
	d="
M285.669800,495.730286 
	C259.876709,508.228973 232.591782,512.808533 204.004883,515.233459 
	C204.004883,507.309662 203.380569,499.654327 204.157516,492.143951 
	C205.209961,481.970245 206.850998,471.795898 209.143463,461.829773 
	C211.306473,452.426361 214.728607,442.906738 223.801361,438.087921 
	C229.317307,435.158264 236.068970,433.387146 242.320786,433.224854 
	C263.022919,432.687469 283.710083,432.155060 303.062744,423.899017 
	C315.518402,418.585297 327.434662,412.007141 339.284180,406.148254 
	C342.210754,434.068237 328.401093,475.465271 285.669800,495.730286 
z"/>
<path fill="#FFFFFF" opacity="1.000000" stroke="none" 
	d="
M1395.199951,306.032471 
	C1407.516235,302.605469 1419.786743,302.018585 1431.879761,303.174286 
	C1455.288086,305.411407 1476.717163,313.212982 1495.071655,328.526306 
	C1515.516846,345.583862 1526.942383,367.330841 1531.164917,393.551025 
	C1535.195923,418.582489 1531.982300,442.389008 1520.880371,464.910431 
	C1511.286743,484.372162 1496.214355,498.870972 1476.974121,509.026428 
	C1463.464844,516.156860 1449.260620,520.465942 1433.983154,522.132080 
	C1403.131348,525.496765 1375.633667,517.106567 1351.886597,498.006226 
	C1332.502319,482.414948 1320.622803,461.645752 1315.842773,436.831146 
	C1313.460449,424.463776 1313.102417,412.066162 1314.214478,399.801788 
	C1316.170532,378.229736 1323.587280,358.580353 1337.741455,341.628723 
	C1352.699585,323.714478 1371.551270,312.425629 1393.902832,306.539001 
	C1394.214355,306.457001 1394.485474,306.222321 1395.199951,306.032471 
z"/>
<path fill="#FFFFFF" opacity="1.000000" stroke="none" 
	d="
M1955.958740,444.023590 
	C1952.122192,429.186890 1951.257324,414.684082 1952.771973,399.768005 
	C1954.241943,385.291199 1957.906128,371.664276 1964.638428,358.906647 
	C1973.955078,341.251740 1987.548706,327.597534 2004.832275,317.626129 
	C2025.461792,305.724426 2047.870239,301.075439 2071.351318,303.168549 
	C2093.218994,305.117798 2113.338379,312.567963 2130.831787,326.315918 
	C2147.071777,339.078583 2158.619629,355.136810 2165.305664,374.700867 
	C2170.873291,390.991486 2172.227051,407.881714 2170.816650,424.782410 
	C2169.101318,445.335449 2162.160889,464.415192 2149.481689,480.849457 
	C2137.256348,496.695343 2121.354736,507.890991 2102.588135,515.017456 
	C2087.752686,520.650940 2072.426270,523.723022 2056.601562,522.906677 
	C2033.862549,521.733582 2013.133545,514.537598 1994.518555,501.122314 
	C1976.628296,488.229370 1964.982422,471.026520 1957.842407,450.462799 
	C1957.154785,448.482208 1956.608887,446.452332 1955.958740,444.023590 
z"/>
<path fill="#FFFFFF" opacity="1.000000" stroke="none" 
	d="
M2317.689453,425.351044 
	C2315.419678,399.750793 2319.035889,375.715759 2332.608887,353.882263 
	C2349.397217,326.876648 2373.726318,310.918701 2404.842773,304.936768 
	C2427.843018,300.515137 2450.040771,303.025482 2471.527588,312.177277 
	C2495.762207,322.499451 2514.114746,339.209717 2525.456299,363.078125 
	C2530.690430,374.093201 2533.772705,385.778107 2535.152344,398.056641 
	C2537.200684,416.285461 2535.877686,434.029907 2529.967773,451.353119 
	C2524.790283,466.529327 2516.676270,480.126007 2505.119629,491.211823 
	C2488.545410,507.111053 2468.696533,516.857178 2446.000244,521.077942 
	C2421.500977,525.634033 2398.133545,522.065674 2376.022461,511.337830 
	C2357.302734,502.255432 2342.201172,488.790344 2331.729980,470.414062 
	C2323.799072,456.495850 2318.848633,441.775330 2317.689453,425.351044 
z"/>
<path fill="#FFFFFF" opacity="1.000000" stroke="none" 
	d="
M2693.000000,339.000000 
	C2693.000000,329.529419 2693.000000,320.558807 2693.000000,311.000000 
	C2695.050049,311.000000 2696.817871,311.000000 2698.585449,311.000000 
	C2724.076416,311.000000 2749.570312,310.761810 2775.057617,311.065674 
	C2801.578125,311.381866 2824.151611,321.412659 2841.602783,341.345551 
	C2853.536621,354.976379 2861.107178,371.161957 2863.969238,389.245239 
	C2865.193115,396.977600 2866.956787,404.795288 2866.796875,412.539551 
	C2866.483398,427.709412 2864.048584,442.693787 2858.511475,456.962311 
	C2853.018311,471.117920 2845.190674,483.896942 2834.080566,494.306396 
	C2821.099365,506.469269 2805.851807,514.712952 2788.029785,516.870728 
	C2776.605225,518.254028 2765.029297,518.730103 2753.509766,518.912292 
	C2733.546387,519.227966 2713.573975,519.000000 2693.000000,519.000000 
	C2693.000000,458.984467 2693.000000,399.242249 2693.000000,339.000000 
z"/>
</svg>